<?xml version="1.0" encoding="utf-8"?>
<svg x="0px" y="0px" viewBox="0 0 520.85297 647.1869624999999" xmlns="http://www.w3.org/2000/svg">
  <defs>
    <style id="bx-google-fonts">@import url(https://fonts.googleapis.com/css?family=Londrina+Solid:400);</style>
  </defs>
  <ellipse cx="261.388" cy="266.876" rx="199.954" ry="209.567" style="fill: rgb(212, 164, 97);"/>
  <path d="M 260.493 0 L 214.579 46.319 L 153.811 22.552 L 130.854 83.59 L 65.899 86.563 L 69.681 151.518 L 11.344 180.686 L 41.322 238.619 L 0 288.99 L 50.91 329.772 L 33.625 392.566 L 96.689 409.041 L 106.547 473.456 L 170.827 462.923 L 205.937 517.75 L 260.359 481.963 L 314.78 517.75 L 350.026 462.923 L 414.305 473.456 L 424.163 409.041 L 487.228 392.566 L 469.942 329.772 L 520.853 288.99 L 479.395 238.619 L 509.51 180.686 L 451.172 151.518 L 455.085 86.563 L 389.861 83.59 L 366.904 22.552 L 306.27 46.319 L 260.49 0 L 260.493 0 Z M 260.493 73.462 C 364.412 73.462 448.606 157.655 448.606 261.575 C 448.606 365.493 364.412 449.822 260.493 449.822 C 156.574 449.822 72.381 365.493 72.381 261.575 C 72.381 157.655 156.574 73.462 260.493 73.462 L 260.493 73.462 Z" clip-rule="evenodd" fill-rule="evenodd" style="fill: rgb(68, 104, 137);"/>
  <text x="184.483" y="270.721" transform="matrix(9.681358, 0, 0, 7.865932, -1679.30542, -1767.283203)" style="fill: rgb(68, 104, 137); font-family: &quot;Londrina Solid&quot;; font-size: 36px; white-space: pre;">L</text>
  <text x="184.483" y="270.721" transform="matrix(9.041515, 0, 0, 7.886576, -1394.527954, -1770.653198)" style="fill: rgb(68, 104, 137); font-family: &quot;Londrina Solid&quot;; font-size: 36px; white-space: pre;">P</text>
</svg>